<?xml version="1.0" encoding="utf-8"?>
<!-- Generator: Adobe Illustrator 24.0.0, SVG Export Plug-In . SVG Version: 6.00 Build 0)  -->
<svg version="1.1" id="Capa_1" xmlns="http://www.w3.org/2000/svg" xmlns:xlink="http://www.w3.org/1999/xlink" x="0px" y="0px"
	 viewBox="0 0 647 329.8" style="enable-background:new 0 0 647 329.8;" xml:space="preserve">
<style type="text/css">
	.st0{fill:#B9DCF0;}
	.st1{fill:#E7EDF4;}
	.st2{fill:url(#XMLID_2_);}
	.st3{fill:#FFFFFF;}
	.st4{fill:#4DD0E1;}
	.st5{fill:url(#XMLID_3_);}
	.st6{fill:url(#XMLID_4_);}
	.st7{fill:url(#XMLID_5_);}
	.st8{fill:url(#XMLID_6_);}
	.st9{opacity:0.3;fill:#FFFFFF;enable-background:new    ;}
	.st10{fill:#28BBC6;}
	.st11{fill:#235196;}
	.st12{fill:url(#XMLID_7_);}
	.st13{fill:url(#XMLID_8_);}
	.st14{fill:url(#XMLID_9_);}
	.st15{fill:#D1DDE8;}
	.st16{fill:url(#XMLID_10_);}
	.st17{fill:url(#XMLID_11_);}
</style>
<g>
	<rect id="XMLID_320_" x="-0.2" y="0.4" class="st0" width="647.3" height="329.4"/>
	<path id="XMLID_318_" class="st1" d="M490.8,0.4h156.4v329.4H490.8c-91,0-164.7-73.7-164.7-164.7l0,0
		C326.1,74.2,399.8,0.4,490.8,0.4z"/>
	
		<linearGradient id="XMLID_2_" gradientUnits="userSpaceOnUse" x1="494.2043" y1="38.1574" x2="494.2043" y2="183.4222" gradientTransform="matrix(1 0 0 -1 0 366)">
		<stop  offset="1.953130e-03" style="stop-color:#FFFFFF;stop-opacity:0"/>
		<stop  offset="1" style="stop-color:#235196"/>
	</linearGradient>
	<path id="XMLID_317_" class="st2" d="M489.3,254.2c-59.9,0-111.1,3.3-131.7,7.9c2.7,3.7,5.5,7.2,8.5,10.7
		c24.3,3.8,70.3,6.4,123.2,6.4c78.1,0,141.4-5.6,141.4-12.5S567.4,254.2,489.3,254.2z"/>
	<polygon id="XMLID_304_" class="st3" points="593.5,139.9 534.7,139.9 534.7,81.1 469.1,81.1 469.1,139.9 410.3,139.9 410.3,205.5 
		469.1,205.5 469.1,264.3 534.7,264.3 534.7,205.5 593.5,205.5 	"/>
	<path id="XMLID_303_" class="st4" d="M471.2,126.7c-0.7,0-1.3-0.4-1.6-1l-4.4-8l-4.2,7.9c-0.3,0.6-1,1-1.7,1s-1.3-0.4-1.7-1
		l-9.9-19l-10.8,19c-0.3,0.6-1,0.9-1.6,0.9h-10.7c-1,0-1.9-0.8-1.9-1.9c0-1,0.8-1.9,1.9-1.9h9.6l12-21.1c0.3-0.6,1-0.9,1.6-0.9
		c0,0,0,0,0,0c0.7,0,1.3,0.4,1.6,1l9.8,18.8l4.1-7.8c0.3-0.6,0.9-1,1.6-1c0.7,0,1.3,0.4,1.7,1l4.3,7.8l6.2-13.2
		c0.3-0.7,1-1.1,1.7-1.1c0.7,0,1.4,0.5,1.7,1.1l6.5,15.3h8.3c1,0,1.9,0.8,1.9,1.9c0,1-0.8,1.9-1.9,1.9H486c-0.8,0-1.4-0.5-1.7-1.1
		l-5.3-12.6l-6,12.7C472.6,126.3,472,126.7,471.2,126.7C471.3,126.7,471.3,126.7,471.2,126.7z"/>
	<g id="XMLID_290_">
		<path id="XMLID_302_" class="st4" d="M390.9,165.2v-9.4h-18.5v9.4c0,2.8-2.3,5-5,5l0,0c-2.8,0-5,2.3-5,5v80.4
			c0,4.8,3.9,8.6,8.6,8.6h21.5c4.8,0,8.6-3.9,8.6-8.6v-80.4c0-2.8-2.3-5-5-5l0,0C393.1,170.2,390.9,168,390.9,165.2z"/>
		<rect id="XMLID_301_" x="367.3" y="186.1" class="st3" width="33.7" height="29.5"/>
		
			<linearGradient id="XMLID_3_" gradientUnits="userSpaceOnUse" x1="331.6116" y1="180.6719" x2="462.3202" y2="123.5335" gradientTransform="matrix(1 0 0 -1 0 366)">
			<stop  offset="1.953130e-03" style="stop-color:#FFFFFF;stop-opacity:0"/>
			<stop  offset="1" style="stop-color:#235196"/>
		</linearGradient>
		<path id="XMLID_300_" class="st5" d="M395.9,170.2c-2.8,0-5-2.3-5-5v-9.4H384v9.4c0,2.8,2.3,5,5,5l0,0c2.8,0,5,2.3,5,5v80.4
			c0,4.8-3.9,8.6-8.6,8.6h6.9c4.8,0,8.6-3.9,8.6-8.6v-80.4C401,172.5,398.7,170.2,395.9,170.2z"/>
		
			<linearGradient id="XMLID_4_" gradientUnits="userSpaceOnUse" x1="358.1992" y1="218.4784" x2="411.2296" y2="190.0959" gradientTransform="matrix(1 0 0 -1 0 366)">
			<stop  offset="1.953130e-03" style="stop-color:#FFFFFF;stop-opacity:0"/>
			<stop  offset="1" style="stop-color:#235196"/>
		</linearGradient>
		<rect id="XMLID_299_" x="372.3" y="155.8" class="st6" width="18.5" height="8.4"/>
		<g id="XMLID_296_">
			<path id="XMLID_298_" class="st3" d="M391.4,160.5h-19.5c-1.5,0-2.7-1.2-2.7-2.7v-6.9c0-1.5,1.2-2.7,2.7-2.7h19.5
				c1.5,0,2.7,1.2,2.7,2.7v6.9C394.1,159.3,392.9,160.5,391.4,160.5z"/>
			<path id="XMLID_297_" class="st3" d="M381.6,134.2L381.6,134.2c-3,0-5.4,2.4-5.4,5.4v8.5H387v-8.5
				C387,136.6,384.6,134.2,381.6,134.2z"/>
		</g>
		<g id="XMLID_293_">
			
				<linearGradient id="XMLID_5_" gradientUnits="userSpaceOnUse" x1="357.3635" y1="235.2199" x2="434.6683" y2="203.8498" gradientTransform="matrix(1 0 0 -1 0 366)">
				<stop  offset="1.953130e-03" style="stop-color:#FFFFFF;stop-opacity:0"/>
				<stop  offset="1" style="stop-color:#235196"/>
			</linearGradient>
			<path id="XMLID_295_" class="st7" d="M383.1,139.6v8.5h3.9v-8.5c0-3-2.4-5.4-5.4-5.4c-0.7,0-1.3,0.1-1.9,0.4
				C381.7,135.3,383.1,137.3,383.1,139.6z"/>
			
				<linearGradient id="XMLID_6_" gradientUnits="userSpaceOnUse" x1="353.7351" y1="226.2786" x2="431.0399" y2="194.9085" gradientTransform="matrix(1 0 0 -1 0 366)">
				<stop  offset="1.953130e-03" style="stop-color:#FFFFFF;stop-opacity:0"/>
				<stop  offset="1" style="stop-color:#235196"/>
			</linearGradient>
			<path id="XMLID_294_" class="st8" d="M391.4,148.1h-3.9c1.5,0,2.7,1.2,2.7,2.7v6.9c0,1.5-1.2,2.7-2.7,2.7h3.9
				c1.5,0,2.7-1.2,2.7-2.7v-6.9C394.1,149.3,392.9,148.1,391.4,148.1z"/>
		</g>
		<path id="XMLID_292_" class="st9" d="M369.8,219.8L369.8,219.8c-1.4,0-2.5-1.1-2.5-2.5v-38c0-1.4,1.1-2.5,2.5-2.5l0,0
			c1.4,0,2.5,1.1,2.5,2.5v38C372.3,218.7,371.2,219.8,369.8,219.8z"/>
		<path id="XMLID_291_" class="st9" d="M369.8,234.9L369.8,234.9c-1.4,0-2.5-1.1-2.5-2.5v-3.4c0-1.4,1.1-2.5,2.5-2.5l0,0
			c1.4,0,2.5,1.1,2.5,2.5v3.4C372.3,233.7,371.2,234.9,369.8,234.9z"/>
	</g>
	<g id="XMLID_256_">
		<path id="XMLID_289_" class="st4" d="M587.9,206.4H487.6c-2.1,0-3.7,1.7-3.7,3.7v51.3c0,2.1,1.7,3.7,3.7,3.7h100.2
			c2.1,0,3.7-1.7,3.7-3.7v-51.3C591.6,208.1,589.9,206.4,587.9,206.4z"/>
		
			<ellipse id="XMLID_288_" transform="matrix(0.7071 -0.7071 0.7071 0.7071 -11.5135 422.1523)" class="st10" cx="503.8" cy="225" rx="8.5" ry="8.5"/>
		<ellipse id="XMLID_287_" class="st10" cx="503.8" cy="251.4" rx="8.5" ry="8.5"/>
		
			<ellipse id="XMLID_286_" transform="matrix(0.9248 -0.3805 0.3805 0.9248 -45.8863 217.8299)" class="st10" cx="528" cy="225" rx="8.5" ry="8.5"/>
		<ellipse id="XMLID_285_" class="st10" cx="528" cy="251.4" rx="8.5" ry="8.5"/>
		
			<ellipse id="XMLID_284_" transform="matrix(0.9248 -0.3805 0.3805 0.9248 -44.0673 227.0307)" class="st10" cx="552.2" cy="225" rx="8.5" ry="8.5"/>
		<ellipse id="XMLID_283_" class="st10" cx="552.2" cy="251.4" rx="8.5" ry="8.5"/>
		
			<ellipse id="XMLID_282_" transform="matrix(0.9248 -0.3805 0.3805 0.9248 -42.2484 236.2316)" class="st10" cx="576.4" cy="225" rx="8.5" ry="8.5"/>
		<ellipse id="XMLID_281_" class="st10" cx="576.4" cy="251.4" rx="8.5" ry="8.5"/>
		<g id="XMLID_278_">
			
				<ellipse id="XMLID_280_" transform="matrix(0.1602 -0.9871 0.9871 0.1602 201.6704 682.4913)" class="st3" cx="501.9" cy="222.7" rx="8.5" ry="8.5"/>
			<path id="XMLID_279_" class="st1" d="M500,231c0.6,0.1,1.3,0.2,1.9,0.2c0.7,0,1.3-0.1,1.9-0.2v-16.5c-0.6-0.1-1.3-0.2-1.9-0.2
				c-0.7,0-1.3,0.1-1.9,0.2V231z"/>
		</g>
		<g id="XMLID_275_">
			<ellipse id="XMLID_277_" class="st3" cx="501.9" cy="248.9" rx="8.5" ry="8.5"/>
			<path id="XMLID_276_" class="st1" d="M500,257.1c0.6,0.1,1.3,0.2,1.9,0.2c0.7,0,1.3-0.1,1.9-0.2v-16.5c-0.6-0.1-1.3-0.2-1.9-0.2
				c-0.7,0-1.3,0.1-1.9,0.2V257.1z"/>
		</g>
		<g id="XMLID_272_">
			
				<ellipse id="XMLID_274_" transform="matrix(0.1562 -0.9877 0.9877 0.1562 223.9131 707.6119)" class="st3" cx="526.1" cy="222.8" rx="8.5" ry="8.5"/>
			<path id="XMLID_273_" class="st1" d="M524.2,231c0.6,0.1,1.3,0.2,1.9,0.2s1.3-0.1,1.9-0.2v-16.5c-0.6-0.1-1.3-0.2-1.9-0.2
				c-0.7,0-1.3,0.1-1.9,0.2V231L524.2,231z"/>
		</g>
		<g id="XMLID_269_">
			<ellipse id="XMLID_271_" class="st3" cx="526.1" cy="248.9" rx="8.5" ry="8.5"/>
			<path id="XMLID_270_" class="st1" d="M524.2,257.1c0.6,0.1,1.3,0.2,1.9,0.2s1.3-0.1,1.9-0.2v-16.5c-0.6-0.1-1.3-0.2-1.9-0.2
				c-0.7,0-1.3,0.1-1.9,0.2V257.1L524.2,257.1z"/>
		</g>
		<g id="XMLID_266_">
			
				<ellipse id="XMLID_268_" transform="matrix(0.7071 -0.7071 0.7071 0.7071 3.68 454.3387)" class="st3" cx="550.3" cy="222.7" rx="8.5" ry="8.5"/>
			<path id="XMLID_267_" class="st1" d="M548.4,231c0.6,0.1,1.3,0.2,1.9,0.2c0.7,0,1.3-0.1,1.9-0.2v-16.5c-0.6-0.1-1.3-0.2-1.9-0.2
				c-0.7,0-1.3,0.1-1.9,0.2V231z"/>
		</g>
		<g id="XMLID_263_">
			<ellipse id="XMLID_265_" class="st3" cx="550.3" cy="248.9" rx="8.5" ry="8.5"/>
			<path id="XMLID_264_" class="st1" d="M548.4,257.1c0.6,0.1,1.3,0.2,1.9,0.2c0.7,0,1.3-0.1,1.9-0.2v-16.5
				c-0.6-0.1-1.3-0.2-1.9-0.2c-0.7,0-1.3,0.1-1.9,0.2V257.1z"/>
		</g>
		<g id="XMLID_260_">
			
				<ellipse id="XMLID_262_" transform="matrix(0.1597 -0.9872 0.9872 0.1597 262.8659 754.2298)" class="st3" cx="574.5" cy="222.7" rx="8.5" ry="8.5"/>
			<path id="XMLID_261_" class="st1" d="M572.5,231c0.6,0.1,1.3,0.2,1.9,0.2c0.7,0,1.3-0.1,1.9-0.2v-16.5c-0.6-0.1-1.3-0.2-1.9-0.2
				c-0.7,0-1.3,0.1-1.9,0.2V231z"/>
		</g>
		<g id="XMLID_257_">
			<ellipse id="XMLID_259_" class="st3" cx="574.5" cy="248.9" rx="8.5" ry="8.5"/>
			<path id="XMLID_258_" class="st1" d="M572.5,257.1c0.6,0.1,1.3,0.2,1.9,0.2c0.7,0,1.3-0.1,1.9-0.2v-16.5
				c-0.6-0.1-1.3-0.2-1.9-0.2c-0.7,0-1.3,0.1-1.9,0.2V257.1z"/>
		</g>
	</g>
	<g id="XMLID_250_">
		<g>
			<path id="XMLID_23_" class="st11" d="M400.3,132.3L400.3,132.3c-1.5,0-2.7-1.2-2.7-2.7v-9.5c0-1.5,1.2-2.7,2.7-2.7l0,0
				c1.5,0,2.7,1.2,2.7,2.7v9.5C403,131.1,401.8,132.3,400.3,132.3z"/>
			<path id="XMLID_22_" class="st11" d="M392.9,124.9L392.9,124.9c0-1.5,1.2-2.7,2.7-2.7h9.5c1.5,0,2.7,1.2,2.7,2.7l0,0
				c0,1.5-1.2,2.7-2.7,2.7h-9.5C394.1,127.5,392.9,126.3,392.9,124.9z"/>
		</g>
	</g>
	<g id="XMLID_247_">
		<path id="XMLID_249_" class="st1" d="M306,271.7L306,271.7c-1.5,0-2.7-1.2-2.7-2.7v-9.5c0-1.5,1.2-2.7,2.7-2.7l0,0
			c1.5,0,2.7,1.2,2.7,2.7v9.5C308.7,270.5,307.5,271.7,306,271.7z"/>
		<path id="XMLID_248_" class="st1" d="M298.6,264.3L298.6,264.3c0-1.5,1.2-2.7,2.7-2.7h9.5c1.5,0,2.7,1.2,2.7,2.7l0,0
			c0,1.5-1.2,2.7-2.7,2.7h-9.5C299.8,266.9,298.6,265.7,298.6,264.3z"/>
	</g>
	<g id="XMLID_244_">
		<path id="XMLID_246_" class="st1" d="M348.7,301.3L348.7,301.3c-1.5,0-2.7-1.2-2.7-2.7v-9.5c0-1.5,1.2-2.7,2.7-2.7l0,0
			c1.5,0,2.7,1.2,2.7,2.7v9.5C351.4,300.1,350.2,301.3,348.7,301.3z"/>
		<path id="XMLID_245_" class="st1" d="M341.3,293.9L341.3,293.9c0-1.5,1.2-2.7,2.7-2.7h9.5c1.5,0,2.7,1.2,2.7,2.7l0,0
			c0,1.5-1.2,2.7-2.7,2.7H344C342.5,296.6,341.3,295.4,341.3,293.9z"/>
	</g>
	<g id="XMLID_241_">
		<path id="XMLID_243_" class="st1" d="M334.5,72.1L334.5,72.1c-1.5,0-2.7-1.2-2.7-2.7v-9.5c0-1.5,1.2-2.7,2.7-2.7l0,0
			c1.5,0,2.7,1.2,2.7,2.7v9.5C337.2,70.9,336,72.1,334.5,72.1z"/>
		<path id="XMLID_242_" class="st1" d="M327.1,64.7L327.1,64.7c0-1.5,1.2-2.7,2.7-2.7h9.5c1.5,0,2.7,1.2,2.7,2.7l0,0
			c0,1.5-1.2,2.7-2.7,2.7h-9.5C328.3,67.4,327.1,66.2,327.1,64.7z"/>
	</g>
	<g id="XMLID_235_">
		<g>
			<path id="XMLID_20_" class="st11" d="M583.3,132.3L583.3,132.3c-1.5,0-2.7-1.2-2.7-2.7v-9.5c0-1.5,1.2-2.7,2.7-2.7l0,0
				c1.5,0,2.7,1.2,2.7,2.7v9.5C585.9,131.1,584.7,132.3,583.3,132.3z"/>
			<path id="XMLID_19_" class="st11" d="M575.8,124.9L575.8,124.9c0-1.5,1.2-2.7,2.7-2.7h9.5c1.5,0,2.7,1.2,2.7,2.7l0,0
				c0,1.5-1.2,2.7-2.7,2.7h-9.5C577,127.5,575.8,126.3,575.8,124.9z"/>
		</g>
	</g>
	<g id="XMLID_229_">
		<g>
			<path id="XMLID_18_" class="st11" d="M560.7,103.4L560.7,103.4c-1.5,0-2.7-1.2-2.7-2.7v-9.5c0-1.5,1.2-2.7,2.7-2.7l0,0
				c1.5,0,2.7,1.2,2.7,2.7v9.5C563.3,102.2,562.2,103.4,560.7,103.4z"/>
			<path id="XMLID_17_" class="st11" d="M553.3,95.9L553.3,95.9c0-1.5,1.2-2.7,2.7-2.7h9.5c1.5,0,2.7,1.2,2.7,2.7l0,0
				c0,1.5-1.2,2.7-2.7,2.7h-9.5C554.5,98.6,553.3,97.4,553.3,95.9z"/>
		</g>
	</g>
	<g id="XMLID_214_">
		<path id="XMLID_228_" class="st11" d="M469.5,264.3H426c-3.2,0-5.7-2.6-5.7-5.7v-69.8h54.9v69.8
			C475.2,261.7,472.6,264.3,469.5,264.3z"/>
		<path id="XMLID_227_" class="st1" d="M476,197.1h-56.5c-1.8,0-3.2-1.4-3.2-3.2v-15.6c0-1.8,1.4-3.2,3.2-3.2H476
			c1.8,0,3.2,1.4,3.2,3.2v15.6C479.2,195.7,477.7,197.1,476,197.1z"/>
		<rect id="XMLID_226_" x="420.3" y="210.4" class="st4" width="54.9" height="24.5"/>
		<g id="XMLID_217_">
			<path id="XMLID_225_" class="st3" d="M421.4,178.7L421.4,178.7c-0.5,0-1,0.4-1,1v17.4h2v-17.4C422.4,179.1,422,178.7,421.4,178.7
				z"/>
			<path id="XMLID_224_" class="st3" d="M429,178.7L429,178.7c-0.5,0-1,0.4-1,1v17.4h2v-17.4C429.9,179.1,429.5,178.7,429,178.7z"/>
			<path id="XMLID_223_" class="st3" d="M436.5,178.7L436.5,178.7c-0.5,0-1,0.4-1,1v17.4h2v-17.4C437.5,179.1,437,178.7,436.5,178.7
				z"/>
			<path id="XMLID_222_" class="st3" d="M444,178.7L444,178.7c-0.5,0-1,0.4-1,1v17.4h2v-17.4C445,179.1,444.6,178.7,444,178.7z"/>
			<path id="XMLID_221_" class="st3" d="M451.6,178.7L451.6,178.7c-0.5,0-1,0.4-1,1v17.4h2v-17.4
				C452.6,179.1,452.1,178.7,451.6,178.7z"/>
			<path id="XMLID_220_" class="st3" d="M459.1,178.7L459.1,178.7c-0.5,0-1,0.4-1,1v17.4h2v-17.4
				C460.1,179.1,459.6,178.7,459.1,178.7z"/>
			<path id="XMLID_219_" class="st3" d="M466.6,178.7L466.6,178.7c-0.5,0-1,0.4-1,1v17.4h2v-17.4
				C467.6,179.1,467.2,178.7,466.6,178.7z"/>
			<path id="XMLID_218_" class="st3" d="M474.2,178.7L474.2,178.7c-0.5,0-1,0.4-1,1v17.4h2v-17.4
				C475.2,179.1,474.7,178.7,474.2,178.7z"/>
		</g>
		<rect id="XMLID_216_" x="428" y="197.1" class="st9" width="9.5" height="67.2"/>
		
			<linearGradient id="XMLID_7_" gradientUnits="userSpaceOnUse" x1="423.952" y1="172.4275" x2="507.9794" y2="120.8905" gradientTransform="matrix(1 0 0 -1 0 366)">
			<stop  offset="1.953130e-03" style="stop-color:#FFFFFF;stop-opacity:0"/>
			<stop  offset="1" style="stop-color:#235196"/>
		</linearGradient>
		<path id="XMLID_215_" class="st12" d="M476,175.1h-13.3c1.8,0,3.2,1.4,3.2,3.2v15.6c0,1.8-1.4,3.2-3.2,3.2h-0.8v61.5
			c0,3.2-2.6,5.7-5.7,5.7h13.3c3.2,0,5.7-2.6,5.7-5.7v-61.5h0.8c1.8,0,3.2-1.4,3.2-3.2v-15.6C479.2,176.5,477.7,175.1,476,175.1z"/>
	</g>
	<g id="XMLID_206_">
		<path id="XMLID_213_" class="st11" d="M607.4,182.5v-9.4h-48.2v9.4c0,2.3-1.8,4.1-4.1,4.1l0,0c-2.3,0-4.1,1.8-4.1,4.1v72.1
			c0,3.9,3.2,7.1,7.1,7.1h50.3c3.9,0,7.1-3.2,7.1-7.1v-72.1c0-2.3-1.8-4.1-4.1-4.1l0,0C609.2,186.6,607.4,184.7,607.4,182.5z"/>
		<rect id="XMLID_212_" x="558.3" y="203.9" class="st1" width="50" height="35.2"/>
		<path id="XMLID_211_" class="st9" d="M565.7,262.7v-72.1c0-2.3,1.8-4.1,4.1-4.1s4.1-1.8,4.1-4.1v-9.4h-7.5v9.4
			c0,2.3-1.8,4.1-4.1,4.1l0,0c-2.3,0-4.1,1.8-4.1,4.1v72.1c0,3.9,3.2,7.1,7.1,7.1h7.5C568.9,269.9,565.7,266.7,565.7,262.7z"/>
		
			<linearGradient id="XMLID_8_" gradientUnits="userSpaceOnUse" x1="552.5106" y1="162.0022" x2="609.2758" y2="203.8293" gradientTransform="matrix(1 0 0 -1 0 366)">
			<stop  offset="1.953130e-03" style="stop-color:#FFFFFF;stop-opacity:0"/>
			<stop  offset="1" style="stop-color:#235196"/>
		</linearGradient>
		<path id="XMLID_210_" class="st13" d="M607.4,182.5v-9.4h-48.2v9.4c0,2.3-1.8,4.1-4.1,4.1h56.4
			C609.2,186.6,607.4,184.7,607.4,182.5z"/>
		<path id="XMLID_208_" class="st4" d="M611.1,178.6h-55.7c-2,0-3.6-1.6-3.6-3.6v-4c0-2,1.6-3.6,3.6-3.6h55.7c2,0,3.6,1.6,3.6,3.6v4
			C614.7,176.9,613.1,178.6,611.1,178.6z"/>
		
			<linearGradient id="XMLID_9_" gradientUnits="userSpaceOnUse" x1="536.5989" y1="172.3594" x2="650.1287" y2="128.6655" gradientTransform="matrix(1 0 0 -1 0 366)">
			<stop  offset="1.953130e-03" style="stop-color:#FFFFFF;stop-opacity:0"/>
			<stop  offset="1" style="stop-color:#235196"/>
		</linearGradient>
		<path id="XMLID_207_" class="st14" d="M611.5,186.6L611.5,186.6c-2.3,0-4.1-1.8-4.1-4.1v-3.9h3.7c2,0,3.6-1.6,3.6-3.6v-4
			c0-2-1.6-3.6-3.6-3.6h-17.2c2,0,3.6,1.6,3.6,3.6v4c0,2-1.6,3.6-3.6,3.6h-3.7v3.9c0,2.3,1.8,4.1,4.1,4.1s4.1,1.8,4.1,4.1v72.1
			c0,3.9-3.2,7.1-7.1,7.1h17.2c3.9,0,7.1-3.2,7.1-7.1v-72.1C615.6,188.4,613.7,186.6,611.5,186.6z"/>
	</g>
	<g id="XMLID_199_">
		<path id="XMLID_205_" class="st15" d="M449.5,252.9h-3.7v0.9c-2.8,1.4-4.8,4.3-4.8,7.6c0,3.3,1.9,6.2,4.8,7.6v0.9h3.7
			c4.7,0,8.5-3.8,8.5-8.5C458,256.7,454.2,252.9,449.5,252.9z"/>
		<circle id="XMLID_202_" class="st3" cx="445.8" cy="261.4" r="8.5"/>
		<path id="XMLID_200_" class="st1" d="M443.9,269.7c0.6,0.1,1.3,0.2,1.9,0.2c0.7,0,1.3-0.1,1.9-0.2v-16.5c-0.6-0.1-1.3-0.2-1.9-0.2
			c-0.7,0-1.3,0.1-1.9,0.2V269.7z"/>
	</g>
	<g id="XMLID_195_">
		<path id="XMLID_198_" class="st15" d="M421.6,252.9h-3.7v0.9c-2.8,1.4-4.8,4.3-4.8,7.6c0,3.3,1.9,6.2,4.8,7.6v0.9h3.7
			c4.7,0,8.5-3.8,8.5-8.5C430.1,256.7,426.3,252.9,421.6,252.9z"/>
		<circle id="XMLID_197_" class="st3" cx="417.9" cy="261.4" r="8.5"/>
		<path id="XMLID_196_" class="st1" d="M416,269.7c0.6,0.1,1.3,0.2,1.9,0.2c0.7,0,1.3-0.1,1.9-0.2v-16.5c-0.6-0.1-1.3-0.2-1.9-0.2
			c-0.7,0-1.3,0.1-1.9,0.2V269.7z"/>
	</g>
	<g id="XMLID_191_">
		<path id="XMLID_194_" class="st3" d="M389.5,256.1h-21c-3.8,0-6.9,3.1-6.9,6.9l0,0c0,3.8,3.1,6.9,6.9,6.9h21
			c3.8,0,6.9-3.1,6.9-6.9l0,0C396.4,259.2,393.3,256.1,389.5,256.1z"/>
		<path id="XMLID_193_" class="st11" d="M389.5,256.1H379v13.8h10.5c3.8,0,6.9-3.1,6.9-6.9C396.4,259.2,393.3,256.1,389.5,256.1z"/>
		
			<linearGradient id="XMLID_10_" gradientUnits="userSpaceOnUse" x1="368.4786" y1="119.3898" x2="390.0455" y2="83.5383" gradientTransform="matrix(1 0 0 -1 0 366)">
			<stop  offset="1.953130e-03" style="stop-color:#FFFFFF;stop-opacity:0"/>
			<stop  offset="1" style="stop-color:#235196"/>
		</linearGradient>
		<path id="XMLID_192_" class="st16" d="M392.6,264.6h-27.1c-1.4,0-2.7-0.4-3.8-1.1c0.2,3.6,3.2,6.5,6.9,6.5h21
			c3.7,0,6.6-2.8,6.9-6.5C395.3,264.2,394,264.6,392.6,264.6z"/>
	</g>
	<g id="XMLID_68_">
		<path id="XMLID_190_" class="st1" d="M358.1,245.3l-17.2,12c-3.1,2.2-3.9,6.5-1.7,9.6l0,0c2.2,3.1,6.5,3.9,9.6,1.7l17.2-12
			c3.1-2.2,3.9-6.5,1.7-9.6l0,0C365.5,243.9,361.2,243.1,358.1,245.3z"/>
		<path id="XMLID_70_" class="st11" d="M358.1,245.3l-8.6,6l7.9,11.3l8.6-6c3.1-2.2,3.9-6.5,1.7-9.6
			C365.5,243.9,361.2,243.1,358.1,245.3z"/>
		
			<linearGradient id="XMLID_11_" gradientUnits="userSpaceOnUse" x1="-318.0781" y1="-346.3458" x2="-296.5096" y2="-382.2001" gradientTransform="matrix(0.8192 -0.5735 -0.5735 -0.8192 397.3551 -216.5337)">
			<stop  offset="1.953130e-03" style="stop-color:#FFFFFF;stop-opacity:0"/>
			<stop  offset="1" style="stop-color:#235196"/>
		</linearGradient>
		<path id="XMLID_69_" class="st17" d="M365.5,250.5L343.3,266c-1.1,0.8-2.5,1.2-3.8,1.2c2.3,2.8,6.3,3.4,9.3,1.3l17.2-12
			c3-2.1,3.8-6.1,1.9-9.2C367.5,248.6,366.6,249.7,365.5,250.5z"/>
	</g>
</g>
</svg>
