<?xml version="1.0" encoding="utf-8"?>
<!-- Generator: Adobe Illustrator 24.0.0, SVG Export Plug-In . SVG Version: 6.00 Build 0)  -->
<svg version="1.1" id="Capa_1" xmlns="http://www.w3.org/2000/svg" xmlns:xlink="http://www.w3.org/1999/xlink" x="0px" y="0px"
	 viewBox="0 0 412 400" style="enable-background:new 0 0 412 400;" xml:space="preserve">
<style type="text/css">
	.st0{fill:#E7EDF4;}
	.st1{fill:url(#XMLID_2_);}
	.st2{fill:#FFFFFF;}
	.st3{fill:#4DD0E1;}
	.st4{fill:url(#XMLID_3_);}
	.st5{fill:url(#XMLID_4_);}
	.st6{fill:url(#XMLID_5_);}
	.st7{fill:url(#XMLID_6_);}
	.st8{opacity:0.3;fill:#FFFFFF;}
	.st9{fill:#28BBC6;}
	.st10{fill:#235196;}
	.st11{fill:url(#XMLID_7_);}
	.st12{fill:url(#XMLID_19_);}
	.st13{fill:url(#XMLID_20_);}
	.st14{fill:#D1DDE8;}
	.st15{fill:url(#XMLID_21_);}
	.st16{fill:url(#XMLID_22_);}
</style>
<path id="XMLID_204_" class="st0" d="M228.78,19.93h172.86v364.14H228.78c-100.55,0-182.07-81.51-182.07-182.07v0
	C46.71,101.45,128.23,19.93,228.78,19.93z"/>
<linearGradient id="XMLID_2_" gradientUnits="userSpaceOnUse" x1="232.5475" y1="381.8555" x2="232.5475" y2="221.2782">
	<stop  offset="1.953130e-03" style="stop-color:#FFFFFF;stop-opacity:0"/>
	<stop  offset="1" style="stop-color:#235196"/>
</linearGradient>
<path id="XMLID_203_" class="st1" d="M227.18,300.45c-66.19,0-122.77,3.63-145.56,8.75c2.96,4.06,6.08,7.99,9.35,11.79
	c26.81,4.19,77.76,7.02,136.21,7.02c86.32,0,156.3-6.17,156.3-13.78S313.5,300.45,227.18,300.45z"/>
<polygon id="XMLID_189_" class="st2" points="342.31,174.12 277.3,174.12 277.3,109.11 204.85,109.11 204.85,174.12 139.83,174.12 
	139.83,246.57 204.85,246.57 204.85,311.58 277.3,311.58 277.3,246.57 342.31,246.57 "/>
<path id="XMLID_188_" class="st3" d="M207.16,159.54c-0.75,0-1.45-0.41-1.81-1.07l-4.86-8.8l-4.61,8.76
	c-0.36,0.68-1.06,1.11-1.83,1.11c-0.77,0-1.48-0.43-1.84-1.11l-10.94-20.97l-11.96,21.03c-0.37,0.65-1.06,1.05-1.8,1.05h-11.86
	c-1.14,0-2.07-0.93-2.07-2.07c0-1.14,0.93-2.07,2.07-2.07h10.65l13.24-23.29c0.37-0.65,1.06-1.05,1.8-1.05c0.01,0,0.02,0,0.04,0
	c0.76,0.01,1.45,0.44,1.8,1.11l10.87,20.83l4.55-8.67c0.35-0.67,1.05-1.1,1.81-1.11c0.75-0.02,1.47,0.4,1.83,1.07l4.76,8.63
	l6.9-14.57c0.35-0.74,1.13-1.19,1.92-1.18c0.82,0.02,1.55,0.51,1.86,1.27l7.14,16.96h9.18c1.14,0,2.07,0.93,2.07,2.07
	c0,1.14-0.93,2.07-2.07,2.07h-10.55c-0.83,0-1.59-0.5-1.91-1.27l-5.88-13.96l-6.65,14.04c-0.33,0.7-1.03,1.16-1.81,1.18
	C207.2,159.54,207.18,159.54,207.16,159.54z"/>
<g id="XMLID_175_">
	<path id="XMLID_187_" class="st3" d="M118.3,202.05v-10.34H97.81v10.34c0,3.08-2.5,5.58-5.58,5.58l0,0c-3.08,0-5.58,2.5-5.58,5.58
		v88.83c0,5.27,4.27,9.54,9.54,9.54h23.74c5.27,0,9.54-4.27,9.54-9.54v-88.83c0-3.08-2.5-5.58-5.58-5.58l0,0
		C120.8,207.63,118.3,205.13,118.3,202.05z"/>
	<rect id="XMLID_186_" x="92.23" y="225.15" class="st2" width="37.24" height="32.56"/>
	<linearGradient id="XMLID_3_" gradientUnits="userSpaceOnUse" x1="52.813" y1="224.3202" x2="197.2998" y2="287.4816">
		<stop  offset="1.953130e-03" style="stop-color:#FFFFFF;stop-opacity:0"/>
		<stop  offset="1" style="stop-color:#235196"/>
	</linearGradient>
	<path id="XMLID_185_" class="st4" d="M123.89,207.63c-3.08,0-5.58-2.5-5.58-5.58v-10.34h-7.58v10.34c0,3.08,2.5,5.58,5.58,5.58l0,0
		c3.08,0,5.58,2.5,5.58,5.58v88.83c0,5.27-4.27,9.54-9.54,9.54h7.58c5.27,0,9.54-4.27,9.54-9.54v-88.83
		C129.47,210.13,126.97,207.63,123.89,207.63z"/>
	<linearGradient id="XMLID_4_" gradientUnits="userSpaceOnUse" x1="82.2048" y1="182.5254" x2="140.8252" y2="213.8997">
		<stop  offset="1.953130e-03" style="stop-color:#FFFFFF;stop-opacity:0"/>
		<stop  offset="1" style="stop-color:#235196"/>
	</linearGradient>
	<rect id="XMLID_184_" x="97.81" y="191.71" class="st5" width="20.49" height="9.3"/>
	<g id="XMLID_181_">
		<path id="XMLID_183_" class="st2" d="M118.85,196.88H97.26c-1.67,0-3.03-1.36-3.03-3.03v-7.64c0-1.67,1.36-3.03,3.03-3.03h21.59
			c1.67,0,3.03,1.36,3.03,3.03v7.64C121.89,195.53,120.53,196.88,118.85,196.88z"/>
		<path id="XMLID_182_" class="st2" d="M108.06,167.75L108.06,167.75c-3.31,0-5.99,2.68-5.99,5.99v9.44h11.97v-9.44
			C114.04,170.43,111.36,167.75,108.06,167.75z"/>
	</g>
	<g id="XMLID_178_">
		<linearGradient id="XMLID_5_" gradientUnits="userSpaceOnUse" x1="81.2813" y1="164.0178" x2="166.735" y2="198.6947">
			<stop  offset="1.953130e-03" style="stop-color:#FFFFFF;stop-opacity:0"/>
			<stop  offset="1" style="stop-color:#235196"/>
		</linearGradient>
		<path id="XMLID_180_" class="st6" d="M109.75,173.74v9.44h4.29v-9.44c0-3.31-2.68-5.99-5.99-5.99c-0.76,0-1.48,0.16-2.15,0.41
			C108.15,169.03,109.75,171.19,109.75,173.74z"/>
		<linearGradient id="XMLID_6_" gradientUnits="userSpaceOnUse" x1="77.2687" y1="173.9061" x2="162.7222" y2="208.5829">
			<stop  offset="1.953130e-03" style="stop-color:#FFFFFF;stop-opacity:0"/>
			<stop  offset="1" style="stop-color:#235196"/>
		</linearGradient>
		<path id="XMLID_179_" class="st7" d="M118.85,183.18h-4.29c1.67,0,3.03,1.36,3.03,3.03v7.64c0,1.67-1.36,3.03-3.03,3.03h4.29
			c1.67,0,3.03-1.36,3.03-3.03v-7.64C121.89,184.53,120.53,183.18,118.85,183.18z"/>
	</g>
	<path id="XMLID_177_" class="st8" d="M95.02,262.45L95.02,262.45c-1.54,0-2.79-1.25-2.79-2.79v-42.02c0-1.54,1.25-2.79,2.79-2.79
		l0,0c1.54,0,2.79,1.25,2.79,2.79v42.02C97.81,261.2,96.56,262.45,95.02,262.45z"/>
	<path id="XMLID_176_" class="st8" d="M95.02,279.08L95.02,279.08c-1.54,0-2.79-1.25-2.79-2.79v-3.77c0-1.54,1.25-2.79,2.79-2.79
		l0,0c1.54,0,2.79,1.25,2.79,2.79v3.77C97.81,277.83,96.56,279.08,95.02,279.08z"/>
</g>
<g id="XMLID_84_">
	<path id="XMLID_174_" class="st3" d="M336.09,247.6H225.28c-2.28,0-4.13,1.85-4.13,4.13v56.76c0,2.28,1.85,4.13,4.13,4.13h110.81
		c2.28,0,4.13-1.85,4.13-4.13v-56.76C340.22,249.45,338.37,247.6,336.09,247.6z"/>
	
		<ellipse id="XMLID_173_" transform="matrix(0.7071 -0.7071 0.7071 0.7071 -118.375 250.4966)" class="st9" cx="243.19" cy="268.14" rx="9.39" ry="9.39"/>
	
		<ellipse id="XMLID_172_" transform="matrix(0.7071 -0.7071 0.7071 0.7071 -139.0414 259.0569)" class="st9" cx="243.19" cy="297.37" rx="9.39" ry="9.39"/>
	
		<ellipse id="XMLID_171_" transform="matrix(0.9248 -0.3805 0.3805 0.9248 -81.7244 122.8733)" class="st9" cx="269.92" cy="268.14" rx="9.39" ry="9.39"/>
	
		<ellipse id="XMLID_170_" transform="matrix(0.9248 -0.3805 0.3805 0.9248 -92.8451 125.0717)" class="st9" cx="269.92" cy="297.37" rx="9.39" ry="9.39"/>
	
		<ellipse id="XMLID_169_" transform="matrix(0.9248 -0.3805 0.3805 0.9248 -79.7138 133.0436)" class="st9" cx="296.65" cy="268.14" rx="9.39" ry="9.39"/>
	
		<ellipse id="XMLID_168_" transform="matrix(0.9248 -0.3805 0.3805 0.9248 -90.8346 135.242)" class="st9" cx="296.65" cy="297.37" rx="9.39" ry="9.39"/>
	
		<ellipse id="XMLID_167_" transform="matrix(0.9248 -0.3805 0.3805 0.9248 -77.7033 143.214)" class="st9" cx="323.38" cy="268.14" rx="9.39" ry="9.39"/>
	
		<ellipse id="XMLID_166_" transform="matrix(0.9248 -0.3805 0.3805 0.9248 -88.8241 145.4124)" class="st9" cx="323.38" cy="297.37" rx="9.39" ry="9.39"/>
	<g id="XMLID_163_">
		
			<ellipse id="XMLID_165_" transform="matrix(0.1602 -0.9871 0.9871 0.1602 -59.7743 461.0691)" class="st2" cx="241.07" cy="265.66" rx="9.39" ry="9.39"/>
		<path id="XMLID_164_" class="st0" d="M238.96,274.81c0.68,0.16,1.39,0.25,2.12,0.25c0.73,0,1.43-0.09,2.12-0.25v-18.29
			c-0.68-0.16-1.39-0.25-2.12-0.25c-0.73,0-1.43,0.09-2.12,0.25V274.81z"/>
	</g>
	<g id="XMLID_160_">
		
			<ellipse id="XMLID_162_" transform="matrix(0.9239 -0.3827 0.3827 0.9239 -94.3728 114.6772)" class="st2" cx="241.07" cy="294.56" rx="9.39" ry="9.39"/>
		<path id="XMLID_161_" class="st0" d="M238.96,303.71c0.68,0.16,1.39,0.25,2.12,0.25c0.73,0,1.43-0.09,2.12-0.25v-18.29
			c-0.68-0.16-1.39-0.25-2.12-0.25c-0.73,0-1.43,0.09-2.12,0.25V303.71z"/>
	</g>
	<g id="XMLID_157_">
		
			<ellipse id="XMLID_159_" transform="matrix(0.1562 -0.9877 0.9877 0.1562 -36.4192 488.6964)" class="st2" cx="267.8" cy="265.66" rx="9.39" ry="9.39"/>
		<path id="XMLID_158_" class="st0" d="M265.69,274.81c0.68,0.16,1.39,0.25,2.12,0.25c0.73,0,1.43-0.09,2.12-0.25v-18.29
			c-0.68-0.16-1.39-0.25-2.12-0.25c-0.73,0-1.43,0.09-2.12,0.25V274.81z"/>
	</g>
	<g id="XMLID_154_">
		
			<ellipse id="XMLID_156_" transform="matrix(0.9314 -0.3641 0.3641 0.9314 -88.8609 117.7125)" class="st2" cx="267.8" cy="294.56" rx="9.39" ry="9.39"/>
		<path id="XMLID_155_" class="st0" d="M265.69,303.71c0.68,0.16,1.39,0.25,2.12,0.25c0.73,0,1.43-0.09,2.12-0.25v-18.29
			c-0.68-0.16-1.39-0.25-2.12-0.25c-0.73,0-1.43,0.09-2.12,0.25V303.71z"/>
	</g>
	<g id="XMLID_151_">
		
			<ellipse id="XMLID_153_" transform="matrix(0.7071 -0.7071 0.7071 0.7071 -101.5856 286.0759)" class="st2" cx="294.53" cy="265.66" rx="9.39" ry="9.39"/>
		<path id="XMLID_152_" class="st0" d="M292.42,274.81c0.68,0.16,1.39,0.25,2.12,0.25c0.73,0,1.43-0.09,2.12-0.25v-18.29
			c-0.68-0.16-1.39-0.25-2.12-0.25c-0.73,0-1.43,0.09-2.12,0.25V274.81z"/>
	</g>
	<g id="XMLID_148_">
		
			<ellipse id="XMLID_150_" transform="matrix(0.2307 -0.973 0.973 0.2307 -60.0272 513.1983)" class="st2" cx="294.53" cy="294.56" rx="9.39" ry="9.39"/>
		<path id="XMLID_149_" class="st0" d="M292.42,303.71c0.68,0.16,1.39,0.25,2.12,0.25c0.73,0,1.43-0.09,2.12-0.25v-18.29
			c-0.68-0.16-1.39-0.25-2.12-0.25c-0.73,0-1.43,0.09-2.12,0.25V303.71z"/>
	</g>
	<g id="XMLID_145_">
		
			<ellipse id="XMLID_147_" transform="matrix(0.1597 -0.9872 0.9872 0.1597 7.6978 540.3687)" class="st2" cx="321.26" cy="265.66" rx="9.39" ry="9.39"/>
		<path id="XMLID_146_" class="st0" d="M319.15,274.81c0.68,0.16,1.39,0.25,2.12,0.25c0.73,0,1.43-0.09,2.12-0.25v-18.29
			c-0.68-0.16-1.39-0.25-2.12-0.25c-0.73,0-1.43,0.09-2.12,0.25V274.81z"/>
	</g>
	<g id="XMLID_85_">
		
			<ellipse id="XMLID_144_" transform="matrix(0.9248 -0.3805 0.3805 0.9248 -87.9154 144.3965)" class="st2" cx="321.26" cy="294.56" rx="9.39" ry="9.39"/>
		<path id="XMLID_143_" class="st0" d="M319.15,303.71c0.68,0.16,1.39,0.25,2.12,0.25c0.73,0,1.43-0.09,2.12-0.25v-18.29
			c-0.68-0.16-1.39-0.25-2.12-0.25c-0.73,0-1.43,0.09-2.12,0.25V303.71z"/>
	</g>
</g>
<g id="XMLID_77_">
	<g>
		<path id="XMLID_64_" class="st10" d="M128.78,165.67L128.78,165.67c-1.62,0-2.93-1.31-2.93-2.93v-10.53
			c0-1.62,1.31-2.93,2.93-2.93l0,0c1.62,0,2.93,1.31,2.93,2.93v10.53C131.71,164.36,130.4,165.67,128.78,165.67z"/>
		<path id="XMLID_63_" class="st10" d="M120.58,157.47L120.58,157.47c0-1.62,1.31-2.93,2.93-2.93h10.53c1.62,0,2.93,1.31,2.93,2.93
			l0,0c0,1.62-1.31,2.93-2.93,2.93h-10.53C121.89,160.4,120.58,159.09,120.58,157.47z"/>
	</g>
</g>
<g id="XMLID_74_">
	<path id="XMLID_76_" class="st0" d="M24.55,319.78L24.55,319.78c-1.62,0-2.93-1.31-2.93-2.93v-10.53c0-1.62,1.31-2.93,2.93-2.93
		l0,0c1.62,0,2.93,1.31,2.93,2.93v10.53C27.49,318.47,26.17,319.78,24.55,319.78z"/>
	<path id="XMLID_75_" class="st0" d="M16.36,311.58L16.36,311.58c0-1.62,1.31-2.93,2.93-2.93h10.53c1.62,0,2.93,1.31,2.93,2.93l0,0
		c0,1.62-1.31,2.93-2.93,2.93H19.29C17.67,314.52,16.36,313.2,16.36,311.58z"/>
</g>
<g id="XMLID_71_">
	<path id="XMLID_73_" class="st0" d="M71.74,352.55L71.74,352.55c-1.62,0-2.93-1.31-2.93-2.93v-10.53c0-1.62,1.31-2.93,2.93-2.93
		l0,0c1.62,0,2.93,1.31,2.93,2.93v10.53C74.67,351.24,73.36,352.55,71.74,352.55z"/>
	<path id="XMLID_72_" class="st0" d="M63.54,344.36L63.54,344.36c0-1.62,1.31-2.93,2.93-2.93H77c1.62,0,2.93,1.31,2.93,2.93l0,0
		c0,1.62-1.31,2.93-2.93,2.93H66.47C64.86,347.29,63.54,345.98,63.54,344.36z"/>
</g>
<g id="XMLID_62_">
	<g>
		<path id="XMLID_59_" class="st10" d="M330.99,165.67L330.99,165.67c-1.62,0-2.93-1.31-2.93-2.93v-10.53
			c0-1.62,1.31-2.93,2.93-2.93l0,0c1.62,0,2.93,1.31,2.93,2.93v10.53C333.92,164.36,332.61,165.67,330.99,165.67z"/>
		<path id="XMLID_58_" class="st10" d="M322.79,157.47L322.79,157.47c0-1.62,1.31-2.93,2.93-2.93h10.53c1.62,0,2.93,1.31,2.93,2.93
			l0,0c0,1.62-1.31,2.93-2.93,2.93h-10.53C324.1,160.4,322.79,159.09,322.79,157.47z"/>
	</g>
</g>
<g id="XMLID_56_">
	<g>
		<path id="XMLID_57_" class="st10" d="M306.04,133.7L306.04,133.7c-1.62,0-2.93-1.31-2.93-2.93v-10.53c0-1.62,1.31-2.93,2.93-2.93
			h0c1.62,0,2.93,1.31,2.93,2.93v10.53C308.97,132.38,307.66,133.7,306.04,133.7z"/>
		<path id="XMLID_29_" class="st10" d="M297.84,125.5L297.84,125.5c0-1.62,1.31-2.93,2.93-2.93h10.53c1.62,0,2.93,1.31,2.93,2.93
			l0,0c0,1.62-1.31,2.93-2.93,2.93h-10.53C299.16,128.43,297.84,127.12,297.84,125.5z"/>
	</g>
</g>
<g id="XMLID_41_">
	<path id="XMLID_55_" class="st10" d="M205.19,311.58h-48.04c-3.49,0-6.31-2.83-6.31-6.31v-77.19h60.67v77.19
		C211.5,308.76,208.67,311.58,205.19,311.58z"/>
	<path id="XMLID_54_" class="st0" d="M212.39,237.32h-62.45c-1.95,0-3.53-1.58-3.53-3.53V216.5c0-1.95,1.58-3.53,3.53-3.53h62.45
		c1.95,0,3.53,1.58,3.53,3.53v17.29C215.92,235.74,214.34,237.32,212.39,237.32z"/>
	<rect id="XMLID_53_" x="150.83" y="251.98" class="st3" width="60.67" height="27.09"/>
	<g id="XMLID_44_">
		<path id="XMLID_52_" class="st2" d="M152.09,216.95L152.09,216.95c-0.6,0-1.09,0.49-1.09,1.09v19.28h2.19v-19.28
			C153.18,217.44,152.69,216.95,152.09,216.95z"/>
		<path id="XMLID_51_" class="st2" d="M160.42,216.95L160.42,216.95c-0.6,0-1.09,0.49-1.09,1.09v19.28h2.19v-19.28
			C161.51,217.44,161.02,216.95,160.42,216.95z"/>
		<path id="XMLID_50_" class="st2" d="M168.75,216.95L168.75,216.95c-0.6,0-1.09,0.49-1.09,1.09v19.28h2.19v-19.28
			C169.84,217.44,169.36,216.95,168.75,216.95z"/>
		<path id="XMLID_49_" class="st2" d="M177.08,216.95L177.08,216.95c-0.6,0-1.09,0.49-1.09,1.09v19.28h2.19v-19.28
			C178.18,217.44,177.69,216.95,177.08,216.95z"/>
		<path id="XMLID_48_" class="st2" d="M185.41,216.95L185.41,216.95c-0.6,0-1.09,0.49-1.09,1.09v19.28h2.19v-19.28
			C186.51,217.44,186.02,216.95,185.41,216.95z"/>
		<path id="XMLID_47_" class="st2" d="M193.74,216.95L193.74,216.95c-0.6,0-1.09,0.49-1.09,1.09v19.28h2.19v-19.28
			C194.84,217.44,194.35,216.95,193.74,216.95z"/>
		<path id="XMLID_46_" class="st2" d="M202.07,216.95L202.07,216.95c-0.6,0-1.09,0.49-1.09,1.09v19.28h2.19v-19.28
			C203.17,217.44,202.68,216.95,202.07,216.95z"/>
		<path id="XMLID_45_" class="st2" d="M210.4,216.95L210.4,216.95c-0.6,0-1.09,0.49-1.09,1.09v19.28h2.19v-19.28
			C211.5,217.44,211.01,216.95,210.4,216.95z"/>
	</g>
	<rect id="XMLID_43_" x="159.33" y="237.32" class="st8" width="10.52" height="74.26"/>
	<linearGradient id="XMLID_7_" gradientUnits="userSpaceOnUse" x1="154.8865" y1="233.4342" x2="247.7714" y2="290.4037">
		<stop  offset="1.953130e-03" style="stop-color:#FFFFFF;stop-opacity:0"/>
		<stop  offset="1" style="stop-color:#235196"/>
	</linearGradient>
	<path id="XMLID_42_" class="st11" d="M212.39,212.97h-14.74c1.95,0,3.53,1.58,3.53,3.53v17.29c0,1.95-1.58,3.53-3.53,3.53h-0.89
		v67.95c0,3.49-2.83,6.31-6.31,6.31h14.75c3.49,0,6.31-2.83,6.31-6.31v-67.95h0.89c1.95,0,3.53-1.58,3.53-3.53V216.5
		C215.92,214.55,214.34,212.97,212.39,212.97z"/>
</g>
<g id="XMLID_33_">
	<path id="XMLID_40_" class="st10" d="M357.64,221.18v-10.4h-53.31v10.4c0,2.5-2.02,4.52-4.52,4.52l0,0c-2.5,0-4.52,2.02-4.52,4.52
		v79.65c0,4.36,3.54,7.9,7.9,7.9h55.6c4.36,0,7.9-3.54,7.9-7.9v-79.65c0-2.5-2.02-4.52-4.52-4.52l0,0
		C359.67,225.7,357.64,223.67,357.64,221.18z"/>
	<rect id="XMLID_39_" x="303.35" y="244.84" class="st0" width="55.28" height="38.87"/>
	<path id="XMLID_38_" class="st8" d="M311.61,309.87v-79.65c0-2.5,2.02-4.52,4.52-4.52c2.5,0,4.52-2.02,4.52-4.52v-10.4h-8.26v10.4
		c0,2.5-2.02,4.52-4.52,4.52h0c-2.5,0-4.52,2.02-4.52,4.52v79.65c0,4.36,3.54,7.9,7.9,7.9h8.26
		C315.14,317.78,311.61,314.24,311.61,309.87z"/>
	<linearGradient id="XMLID_19_" gradientUnits="userSpaceOnUse" x1="296.9937" y1="244.9501" x2="359.7425" y2="198.7139">
		<stop  offset="1.953130e-03" style="stop-color:#FFFFFF;stop-opacity:0"/>
		<stop  offset="1" style="stop-color:#235196"/>
	</linearGradient>
	<path id="XMLID_37_" class="st12" d="M357.64,221.18v-10.4h-53.31v10.4c0,2.5-2.02,4.52-4.52,4.52h62.36
		C359.67,225.7,357.64,223.67,357.64,221.18z"/>
	<path id="XMLID_35_" class="st3" d="M361.75,216.83h-61.52c-2.2,0-3.98-1.78-3.98-3.98v-4.42c0-2.2,1.78-3.98,3.98-3.98h61.52
		c2.2,0,3.98,1.78,3.98,3.98v4.42C365.73,215.05,363.95,216.83,361.75,216.83z"/>
	<linearGradient id="XMLID_20_" gradientUnits="userSpaceOnUse" x1="279.4103" y1="233.5043" x2="404.9073" y2="281.804">
		<stop  offset="1.953130e-03" style="stop-color:#FFFFFF;stop-opacity:0"/>
		<stop  offset="1" style="stop-color:#235196"/>
	</linearGradient>
	<path id="XMLID_34_" class="st13" d="M362.17,225.7L362.17,225.7c-2.5,0-4.52-2.02-4.52-4.52v-4.34h4.1c2.2,0,3.98-1.78,3.98-3.98
		v-4.42c0-2.2-1.78-3.98-3.98-3.98h-18.99c2.2,0,3.98,1.78,3.98,3.98v4.42c0,2.2-1.78,3.98-3.98,3.98h-4.1v4.34
		c0,2.5,2.02,4.52,4.52,4.52c2.5,0,4.52,2.02,4.52,4.52v79.65c0,4.36-3.54,7.9-7.9,7.9h18.99c4.36,0,7.9-3.54,7.9-7.9v-79.65
		C366.69,227.72,364.66,225.7,362.17,225.7z"/>
</g>
<g id="XMLID_28_">
	<path id="XMLID_32_" class="st14" d="M183.18,298.99h-4.13v0.97c-3.12,1.53-5.26,4.72-5.26,8.43c0,3.7,2.15,6.9,5.26,8.43v0.97
		h4.13c5.19,0,9.39-4.21,9.39-9.39C192.57,303.2,188.36,298.99,183.18,298.99z"/>
	<circle id="XMLID_31_" class="st2" cx="179.05" cy="308.38" r="9.39"/>
	<path id="XMLID_30_" class="st0" d="M176.93,317.53c0.68,0.16,1.39,0.25,2.12,0.25c0.73,0,1.43-0.09,2.12-0.25v-18.29
		c-0.68-0.16-1.39-0.25-2.12-0.25c-0.73,0-1.43,0.09-2.12,0.25V317.53z"/>
</g>
<g id="XMLID_16_">
	<path id="XMLID_27_" class="st14" d="M152.31,298.99h-4.13v0.97c-3.12,1.53-5.26,4.72-5.26,8.43c0,3.7,2.15,6.9,5.26,8.43v0.97
		h4.13c5.19,0,9.39-4.21,9.39-9.39C161.71,303.2,157.5,298.99,152.31,298.99z"/>
	<circle id="XMLID_18_" class="st2" cx="148.19" cy="308.38" r="9.39"/>
	<path id="XMLID_17_" class="st0" d="M146.07,317.53c0.68,0.16,1.39,0.25,2.12,0.25c0.73,0,1.43-0.09,2.12-0.25v-18.29
		c-0.68-0.16-1.39-0.25-2.12-0.25c-0.73,0-1.43,0.09-2.12,0.25V317.53z"/>
</g>
<g id="XMLID_12_">
	<path id="XMLID_15_" class="st2" d="M116.83,302.52H93.65c-4.21,0-7.63,3.41-7.63,7.63l0,0c0,4.21,3.41,7.63,7.63,7.63h23.18
		c4.21,0,7.63-3.41,7.63-7.63l0,0C124.46,305.94,121.04,302.52,116.83,302.52z"/>
	<path id="XMLID_14_" class="st10" d="M116.83,302.52h-11.59v15.25h11.59c4.21,0,7.63-3.41,7.63-7.63
		C124.46,305.94,121.04,302.52,116.83,302.52z"/>
	<linearGradient id="XMLID_21_" gradientUnits="userSpaceOnUse" x1="93.5641" y1="292.0621" x2="117.4044" y2="331.6928">
		<stop  offset="1.953130e-03" style="stop-color:#FFFFFF;stop-opacity:0"/>
		<stop  offset="1" style="stop-color:#235196"/>
	</linearGradient>
	<path id="XMLID_13_" class="st15" d="M120.22,311.92H90.26c-1.56,0-3-0.47-4.21-1.27c0.26,3.98,3.56,7.13,7.6,7.13h23.18
		c4.04,0,7.34-3.15,7.6-7.13C123.22,311.45,121.78,311.92,120.22,311.92z"/>
</g>
<g id="XMLID_8_">
	<path id="XMLID_11_" class="st0" d="M82.08,290.61L63.09,303.9c-3.45,2.42-4.29,7.17-1.87,10.62l0,0
		c2.42,3.45,7.17,4.29,10.62,1.87l18.99-13.29c3.45-2.42,4.29-7.17,1.87-10.62l0,0C90.28,289.03,85.53,288.19,82.08,290.61z"/>
	<path id="XMLID_10_" class="st10" d="M82.08,290.61l-9.49,6.65l8.75,12.5l9.49-6.65c3.45-2.42,4.29-7.17,1.87-10.62
		C90.28,289.03,85.53,288.19,82.08,290.61z"/>
	
		<linearGradient id="XMLID_22_" gradientUnits="userSpaceOnUse" x1="-408.6655" y1="507.8121" x2="-384.8234" y2="547.4459" gradientTransform="matrix(0.8192 -0.5735 0.5735 0.8192 100.5643 -354.9873)">
		<stop  offset="1.953130e-03" style="stop-color:#FFFFFF;stop-opacity:0"/>
		<stop  offset="1" style="stop-color:#235196"/>
	</linearGradient>
	<path id="XMLID_9_" class="st16" d="M90.24,296.36L65.7,313.54c-1.27,0.89-2.73,1.34-4.18,1.37c2.49,3.11,7,3.8,10.32,1.48
		l18.99-13.29c3.31-2.32,4.21-6.79,2.14-10.2C92.43,294.25,91.52,295.47,90.24,296.36z"/>
</g>
</svg>
